# xmcd
#
# Track frame offsets: 
#        182
#        9922
#        22705
#        34807
#        48907
#        60157
#        73707
#        86205
#        102662
#        115135
#        127740
#        138712
#        151507
#        161652
#
# Disc length: 2273 seconds
#
# Revision: 5
# Processed by: cddbd v1.5.2PL0 Copyright (c) Steve Scherf et al.
# Submitted via: ExactAudioCopyFreeDBPlugin 1.0
#
DISCID=a608df0e
DTITLE=Randy Travis - Heroes and Friends
DYEAR=1990
DGENRE=Country
TTITLE0=Heroes And Friends
TTITLE1=Do I Ever Cross Your Mind (Duet With Dolly Parton)
TTITLE2=Birth Of The Blues (Duet With Willie Nelson)
TTITLE3=All Night Long (Duet With Merle Hagggard)
TTITLE4=The Human Race (Duet With Vern Gosdin)
TTITLE5=Shopping For Dresses (Duet With Loretta Lynn)
TTITLE6=Waiting On The Light To Change (Duet With B.B. King)
TTITLE7=A Few Ole Country Boys (Duet With George Jones)
TTITLE8=Walk Our Own Road (Duet With Kris Kristofferson)
TTITLE9=We're Strangers Again (Duet With Tammy Wynette)
TTITLE10=Smokin' The Hive (Duet With Clint Eastwood)
TTITLE11=Come See About Me (Duet With Conway Twitty)
TTITLE12=Happy Trails (Duet With Roy Rogers)
TTITLE13=Heroes And Friends (Reprise)
EXTD=YEAR: 1990
EXTT0=
EXTT1=
EXTT2=
EXTT3=
EXTT4=
EXTT5=
EXTT6=
EXTT7=
EXTT8=
EXTT9=
EXTT10=
EXTT11=
EXTT12=
EXTT13=
PLAYORDER=
